<svg width="59" height="20" viewBox="0 0 59 20" fill="none" xmlns="http://www.w3.org/2000/svg">
<g clip-path="url(#clip0)">
<path d="M-1.43011 19.6765V0.325177H5.27245C6.10787 0.319403 6.93736 0.465655 7.72042 0.756791C8.46232 1.03057 9.14546 1.44277 9.73354 1.97146C10.3311 2.51468 10.8062 3.17882 11.1273 3.91977C11.4484 4.66072 11.6082 5.46152 11.596 6.26898C11.6045 7.07184 11.4429 7.86739 11.1218 8.60333C10.8008 9.33927 10.3277 9.99894 9.73354 10.539C9.1456 11.0678 8.46242 11.4801 7.72042 11.7536C6.93792 12.0449 6.10899 12.1914 5.27407 12.1861H1.62357V19.6725L-1.43011 19.6765ZM5.35343 9.27084C5.81662 9.27983 6.2767 9.19327 6.70496 9.01657C7.08239 8.8585 7.42293 8.62385 7.70504 8.32744C7.97146 8.04557 8.1822 7.71587 8.32614 7.35571C8.46687 7.01255 8.54028 6.64553 8.54235 6.27465C8.53992 5.50316 8.24 4.76235 7.70504 4.20646C7.39918 3.89562 7.03323 3.65031 6.62949 3.48547C6.22576 3.32064 5.79269 3.23973 5.35667 3.24768H1.62357V9.27408L5.35343 9.27084Z" fill="#191919"/>
<path d="M14.6214 0.325467V4.37924C14.3531 4.38543 14.0864 4.3358 13.8383 4.23348C13.5902 4.13116 13.366 3.97839 13.18 3.78486C12.9911 3.59739 12.842 3.37361 12.7418 3.12701C12.6416 2.8804 12.5923 2.61607 12.597 2.34992C12.5932 2.08462 12.6428 1.82126 12.743 1.57556C12.8432 1.32986 12.9918 1.10686 13.18 0.919847C13.3662 0.726632 13.5904 0.574071 13.8385 0.471775C14.0866 0.369479 14.3532 0.319663 14.6214 0.325467Z" fill="#00BAFC"/>
<path d="M15.6215 3.37918V16.6224H18.6217V3.37918H15.6215Z" fill="#191919"/>
<path d="M21.6219 2.34977C21.6263 2.61531 21.5772 2.87902 21.4775 3.12515C21.3777 3.37128 21.2293 3.59477 21.0413 3.78227C20.8589 3.97445 20.6384 4.12654 20.394 4.22887C20.1496 4.33121 19.8866 4.38153 19.6217 4.37665V0.325311C19.8866 0.320627 20.1496 0.371044 20.3939 0.473364C20.6383 0.575683 20.8587 0.727673 21.0413 0.919691C21.2289 1.10699 21.377 1.3301 21.4768 1.57577C21.5765 1.82144 21.6259 2.08465 21.6219 2.34977Z" fill="#35AF39"/>
<path d="M27.2711 9.89226L22.7031 3.37918H26.19L29.0542 7.56818H29.1352L31.8075 3.37918H35.4288L30.8074 9.89226L35.5098 16.6224H31.9468L29.0818 12.2981H29.0008L26.1601 16.6224H22.6221L27.2711 9.89226Z" fill="#191919"/>
<path d="M49.5373 13.4587C48.9673 14.4974 48.1499 15.3794 47.1574 16.0265C46.1316 16.7122 44.8708 17.055 43.3749 17.055C42.4345 17.0648 41.5018 16.8856 40.6321 16.5278C39.8141 16.1902 39.0736 15.6889 38.4563 15.0548C37.8362 14.4136 37.3494 13.6559 37.0238 12.8255C36.6732 11.9256 36.4989 10.9667 36.5104 10.001C36.5051 9.07354 36.6697 8.153 36.9962 7.28494C37.3036 6.45669 37.7667 5.695 38.3607 5.04104C38.9807 4.36842 39.7357 3.83422 40.5763 3.47337C41.4169 3.11252 42.3242 2.93313 43.2388 2.94694C44.2646 2.94694 45.1791 3.11807 45.9824 3.46034C46.7581 3.78478 47.4543 4.2735 48.023 4.89285C48.5986 5.53557 49.0356 6.29006 49.3065 7.10922C49.6115 8.02267 49.7622 8.9805 49.7527 9.94346V10.1864C49.7354 10.2662 49.7262 10.3476 49.7252 10.4293C49.7075 10.5 49.6986 10.5727 49.6985 10.6455H39.5106C39.5484 11.2209 39.7047 11.7822 39.9697 12.2943C40.202 12.7385 40.5186 13.1332 40.9018 13.4563C41.2642 13.759 41.682 13.9883 42.1319 14.1317C42.5592 14.2725 43.0059 14.3455 43.4559 14.3479C44.3196 14.3479 45.0314 14.1408 45.5913 13.7268C46.1493 13.3121 46.6176 12.7887 46.9679 12.1882L49.5373 13.4587ZM46.7525 8.35062C46.7049 8.03934 46.6186 7.73522 46.4958 7.44528C46.3527 7.10071 46.1414 6.78862 45.8747 6.5278C45.5607 6.22555 45.1944 5.98299 44.7936 5.81195C44.3526 5.61382 43.8167 5.51476 43.1862 5.51476C42.3224 5.51476 41.5791 5.77146 40.9561 6.28486C40.3331 6.79826 39.9141 7.48685 39.6993 8.35062H46.7525Z" fill="#191919"/>
<path d="M50.7531 3.59578H53.5873V5.59595H53.7493C53.9197 5.2445 54.1443 4.92205 54.4149 4.6404C54.6931 4.34299 55.0118 4.0862 55.3616 3.87759C55.7127 3.66928 56.0842 3.49726 56.4702 3.36419C56.8302 3.23523 57.2093 3.16736 57.5917 3.16336C57.9647 3.15637 58.337 3.19747 58.6995 3.28564C58.992 3.36206 59.2736 3.47526 59.5376 3.62251L58.6728 6.35228C58.461 6.25831 58.2385 6.19033 58.0104 6.14984C57.7204 6.10108 57.4266 6.07831 57.1326 6.08181C56.6692 6.07642 56.2109 6.179 55.794 6.38143C55.3885 6.58076 55.0259 6.85751 54.7267 7.19607C54.4124 7.55402 54.1694 7.9688 54.0109 8.41804C53.8381 8.89709 53.7512 9.40285 53.7542 9.91208V16.839H50.758L50.7531 3.59578Z" fill="#191919"/>
</g>
<defs>
<clipPath id="clip0">
<rect width="60.9678" height="19.3515" fill="white" transform="translate(-1.43011 0.325012)"/>
</clipPath>
</defs>
</svg>
